<svg viewBox="0 0 24 24" fill="currentColor" xmlns="http://www.w3.org/2000/svg">
<path d="M1.5001 10.2449C1.62344 10.5392 1.83245 10.7895 2.09997 10.9634C2.36748 11.1373 2.68112 11.2267 3.0001 11.2199H4.8526L9.7501 16.0874V17.9999C9.7501 18.2087 9.79123 18.4155 9.87114 18.6084C9.95104 18.8013 10.0682 18.9766 10.2158 19.1242C10.3635 19.2719 10.5387 19.389 10.7316 19.4689C10.9245 19.5488 11.1313 19.5899 11.3401 19.5899C11.5492 19.5914 11.7564 19.551 11.9496 19.4711C12.1428 19.3913 12.3181 19.2736 12.4651 19.1249L15.2776 16.3124L20.5276 21.5624C20.5973 21.6327 20.6803 21.6885 20.7717 21.7266C20.8631 21.7647 20.9611 21.7843 21.0601 21.7843C21.1591 21.7843 21.2571 21.7647 21.3485 21.7266C21.4399 21.6885 21.5229 21.6327 21.5926 21.5624C21.6629 21.4927 21.7187 21.4098 21.7568 21.3184C21.7948 21.227 21.8145 21.129 21.8145 21.0299C21.8145 20.9309 21.7948 20.8329 21.7568 20.7415C21.7187 20.6501 21.6629 20.5672 21.5926 20.4974L16.3426 15.2474L19.1176 12.4349C19.3298 12.2116 19.4726 11.9315 19.5286 11.6286C19.5846 11.3257 19.5514 11.013 19.433 10.7286C19.3147 10.4442 19.1162 10.2003 18.8619 10.0266C18.6075 9.85282 18.3081 9.75672 18.0001 9.74994H16.0951L11.2501 4.85244V2.95494C11.2525 2.6402 11.161 2.33189 10.9873 2.06942C10.8136 1.80696 10.5655 1.60226 10.2749 1.48148C9.98421 1.36071 9.66414 1.32936 9.35557 1.39143C9.04701 1.4535 8.76396 1.60617 8.5426 1.82994L1.8601 8.51244C1.63435 8.73251 1.47947 9.01499 1.41533 9.32367C1.35118 9.63235 1.38071 9.95315 1.5001 10.2449Z" fill="currentColor"/>
</svg>