<svg viewBox="0 0 24 24" fill="none" xmlns="http://www.w3.org/2000/svg">
<g clip-path="url(#clip0_892_26604)">
<g clip-path="url(#clip1_892_26604)">
<path d="M12 0C5.38312 0 0 5.38312 0 12C0 18.6169 5.38312 24 12 24C18.6169 24 24 18.6169 24 12C24 5.38312 18.6169 0 12 0Z" fill="url(#paint0_linear_892_26604)"/>
<path d="M12 3C7.03725 3 3 7.03725 3 12C3 16.9628 7.03725 21 12 21C16.9628 21 21 16.9628 21 12C21 7.03725 16.9628 3 12 3Z" fill="url(#paint1_linear_892_26604)"/>
<path d="M12.75 11.25H11.25C10.8364 11.25 10.5 10.9136 10.5 10.5C10.5 10.0864 10.8364 9.75 11.25 9.75H13.5C13.6989 9.75 13.8897 9.67098 14.0303 9.53033C14.171 9.38968 14.25 9.19891 14.25 9C14.25 8.80109 14.171 8.61032 14.0303 8.46967C13.8897 8.32902 13.6989 8.25 13.5 8.25H12.75C12.75 8.05109 12.671 7.86032 12.5303 7.71967C12.3897 7.57902 12.1989 7.5 12 7.5C11.8011 7.5 11.6103 7.57902 11.4697 7.71967C11.329 7.86032 11.25 8.05109 11.25 8.25C10.0091 8.25 9 9.25912 9 10.5C9 11.7409 10.0091 12.75 11.25 12.75H12.75C13.1636 12.75 13.5 13.0864 13.5 13.5C13.5 13.9136 13.1636 14.25 12.75 14.25H10.5C10.3011 14.25 10.1103 14.329 9.96967 14.4697C9.82902 14.6103 9.75 14.8011 9.75 15C9.75 15.1989 9.82902 15.3897 9.96967 15.5303C10.1103 15.671 10.3011 15.75 10.5 15.75H11.25C11.25 15.9489 11.329 16.1397 11.4697 16.2803C11.6103 16.421 11.8011 16.5 12 16.5C12.1989 16.5 12.3897 16.421 12.5303 16.2803C12.671 16.1397 12.75 15.9489 12.75 15.75C13.9909 15.75 15 14.7409 15 13.5C15 12.2591 13.9909 11.25 12.75 11.25Z" fill="url(#paint2_linear_892_26604)"/>
</g>
</g>
<defs>
<linearGradient id="paint0_linear_892_26604" x1="3.51863" y1="20.4814" x2="20.4814" y2="3.51863" gradientUnits="userSpaceOnUse">
<stop stop-color="#FF8125"/>
<stop offset="1" stop-color="#FFC025"/>
</linearGradient>
<linearGradient id="paint1_linear_892_26604" x1="5.63963" y1="18.3611" x2="18.3615" y2="5.63925" gradientUnits="userSpaceOnUse">
<stop stop-color="#FFC025"/>
<stop offset="1" stop-color="#FFFF7F"/>
</linearGradient>
<linearGradient id="paint2_linear_892_26604" x1="9.21975" y1="14.7802" x2="14.7803" y2="9.21975" gradientUnits="userSpaceOnUse">
<stop stop-color="#FF8125"/>
<stop offset="1" stop-color="#FFC025"/>
</linearGradient>
<clipPath id="clip0_892_26604">
<rect width="24" height="24" fill="white"/>
</clipPath>
<clipPath id="clip1_892_26604">
<rect width="24" height="24" fill="white"/>
</clipPath>
</defs>
</svg>
