<svg width="32" height="32" viewBox="0 0 32 32" fill="currentColor" xmlns="http://www.w3.org/2000/svg">
<path d="M24.0272 16.4398L22.4005 14.8132C22.2056 14.641 22.049 14.4298 21.941 14.1932C21.8331 13.9566 21.7761 13.6999 21.7739 13.4398C21.7472 12.8398 21.9872 12.2398 22.4272 11.7998L24.0272 10.1998C25.4139 8.81317 25.9339 7.47984 25.4939 6.4265C25.0672 5.3865 23.7472 4.81317 21.8005 4.81317H7.86719V3.6665C7.86719 3.11984 7.41385 2.6665 6.86719 2.6665C6.32052 2.6665 5.86719 3.11984 5.86719 3.6665V28.3332C5.86719 28.8798 6.32052 29.3332 6.86719 29.3332C7.41385 29.3332 7.86719 28.8798 7.86719 28.3332V21.8265H21.8005C23.7205 21.8265 25.0139 21.2398 25.4539 20.1865C25.8939 19.1332 25.3872 17.8132 24.0272 16.4398Z" fill="currentColor"/>
</svg>
